<svg id="Layer_1" enable-background="new 0 0 64 64" height="512" viewBox="0 0 64 64" width="512" xmlns="http://www.w3.org/2000/svg"><g><g><path d="m22.61 18.29c1.79.32 3.58.48 5.38.48 1.76 0 3.53-.17 5.29-.47 1.78.31 3.58.47 5.37.47 2.84 0 5.7-.39 8.52-1.18.42-.12.71-.5.71-.93 0-.18-.04-4.45-3.32-5.45-.86-.26-1.87-.75-2.74-1.22.29-.45.53-.97.7-1.54.63-.5.98-1.45 1.09-2 .11-.58.07-1.08-.14-1.5-.1-.2-.23-.38-.4-.52l.01-.29c.05-1.1-.32-2.13-1.04-2.88-.75-.82-1.83-1.26-3.03-1.26h-.65c-1.2 0-2.28.44-3.04 1.24-.73.76-1.1 1.78-1.05 2.88l.01.3c-.16.14-.3.32-.4.52-.2.42-.25.92-.14 1.49.11.55.45 1.5 1.08 2 .18.57.42 1.09.71 1.54-.63.34-1.42.74-2.2 1.04-.76-.29-1.54-.68-2.19-1.03.29-.45.54-.97.71-1.54.63-.5.98-1.45 1.09-2 .11-.58.07-1.08-.14-1.5-.1-.2-.23-.38-.4-.52l.01-.29c.05-1.1-.32-2.13-1.04-2.88-.75-.81-1.83-1.25-3.03-1.25h-.65c-1.2 0-2.28.44-3.04 1.24-.73.76-1.1 1.78-1.05 2.88l.01.3c-.16.14-.3.32-.4.52-.2.42-.25.92-.14 1.49.11.55.45 1.5 1.08 2 .18.57.42 1.09.71 1.54-.81.44-1.56.79-2.21 1.03-.77-.29-1.56-.69-2.19-1.03.29-.45.54-.97.72-1.54.63-.5.98-1.45 1.09-2 .17-.85-.05-1.4-.26-1.71-.08-.12-.17-.22-.27-.31l.01-.29c.05-1.1-.32-2.13-1.04-2.88-.76-.8-1.85-1.24-3.04-1.24h-.65c-1.2 0-2.28.44-3.05 1.24-.72.76-1.09 1.78-1.04 2.88l.01.29c-.45.39-.72 1.07-.53 2.02.11.55.45 1.5 1.08 2 .18.57.42 1.09.72 1.54-.78.43-1.81.94-2.74 1.22-3.29.99-3.32 5.26-3.32 5.44 0 .43.29.82.71.93 2.82.79 5.66 1.18 8.5 1.18 1.74.02 3.5-.15 5.25-.45zm3.91-1.51c.01-.05.02-.09.02-.13 0-.14-.03-2.87-1.69-4.48.51-.25.99-.51 1.42-.76.53.33 1.12.52 1.74.52.61 0 1.2-.19 1.73-.52.87.5 2.11 1.15 3.3 1.55.01 0 .01 0 .02.01.09.03.18.06.27.09 1.31.4 1.74 1.93 1.88 2.86-2.88.73-5.79 1.01-8.69.86zm19.36-.86c-2.88.73-5.79 1.01-8.68.86.01-.04.02-.09.02-.13 0-.14-.03-2.87-1.69-4.48.54-.27 1.03-.54 1.42-.76.53.33 1.12.52 1.73.52.62 0 1.21-.18 1.75-.51.83.48 2.24 1.23 3.58 1.64 1.3.39 1.73 1.93 1.87 2.86zm-9.64-10.97-.04-.91c-.03-.58.15-1.08.51-1.45.4-.41.98-.64 1.64-.64h.65c.66 0 1.25.23 1.64.64.36.38.53.88.51 1.46l-.03.9c-.02.41.24.78.61.93 0 .05-.01.11-.02.18-.07.36-.25.69-.35.81-.3.11-.52.36-.6.68-.35 1.43-1.21 2.43-2.09 2.43s-1.74-1-2.09-2.43c-.08-.31-.3-.57-.6-.68-.1-.12-.28-.45-.35-.81-.01-.08-.02-.14-.02-.18.39-.14.64-.52.63-.93zm-10.67 0-.03-.91c-.03-.58.15-1.08.51-1.45.4-.41.98-.64 1.64-.64h.65c.66 0 1.25.23 1.64.64.36.38.54.88.51 1.46l-.03.9c-.02.41.24.78.61.93 0 .05-.01.11-.02.18-.07.36-.25.69-.35.81-.3.11-.52.36-.6.68-.35 1.43-1.21 2.43-2.09 2.43s-1.74-1-2.09-2.43c-.08-.31-.3-.57-.6-.68-.1-.12-.28-.45-.35-.81-.01-.08-.02-.14-.02-.18.38-.14.63-.52.62-.93zm-10.67 0-.03-.91c-.03-.58.15-1.08.51-1.45.4-.42.98-.64 1.64-.64h.65c.66 0 1.25.23 1.64.64.36.38.54.88.51 1.46l-.03.9c-.02.41.24.78.61.93 0 .05-.01.11-.02.18-.07.36-.25.69-.35.81-.3.11-.52.36-.6.68-.35 1.43-1.21 2.43-2.09 2.43s-1.74-1-2.09-2.43c-.08-.31-.3-.57-.6-.68-.1-.12-.28-.45-.35-.81-.01-.08-.02-.14-.02-.18.38-.14.63-.52.62-.93zm-2.88 8.1c1.28-.39 2.65-1.1 3.59-1.64.53.33 1.12.52 1.73.52s1.2-.19 1.73-.52c.87.5 2.1 1.14 3.3 1.55.01 0 .02.01.03.01l.27.09c1.31.4 1.74 1.93 1.88 2.86-4.78 1.2-9.62 1.2-14.4 0 .13-.93.56-2.47 1.87-2.87z"/><path d="m34.56 38.29c-1.09-.33-2.31-.94-3.2-1.44.36-.53.66-1.14.87-1.83.7-.53 1.08-1.58 1.2-2.19.21-1.07-.11-1.8-.6-2.2l.01-.36c.05-1.2-.35-2.32-1.14-3.14-.84-.87-2.01-1.35-3.32-1.35h-.73c-1.31 0-2.49.48-3.32 1.36-.79.82-1.19 1.94-1.14 3.13l.01.39c-.5.41-.8 1.14-.6 2.19.12.6.5 1.66 1.2 2.19.21.69.51 1.3.87 1.83-.89.49-2.11 1.11-3.2 1.44-3.59 1.08-3.64 5.78-3.64 5.98 0 .43.29.82.71.93 3.14.88 6.3 1.32 9.47 1.32 3.16 0 6.33-.44 9.47-1.32.42-.12.71-.5.71-.93 0-.22-.04-4.92-3.63-6zm-10.08-6.13c.42-.13.7-.52.68-.96l-.04-1.02c-.03-.68.18-1.27.6-1.71.47-.49 1.15-.76 1.92-.76h.73c.77 0 1.45.27 1.92.76.42.44.63 1.03.6 1.72l-.04 1.01c-.02.43.28.82.68.96 0 .07 0 .17-.03.31-.09.46-.31.85-.43.98-.31.11-.55.36-.63.69-.4 1.65-1.41 2.81-2.44 2.81s-2.04-1.16-2.44-2.81c-.08-.32-.32-.58-.63-.69-.12-.13-.35-.52-.43-.98-.02-.14-.02-.25-.02-.31zm-4.64 11.38c.15-1.05.63-2.92 2.19-3.4 1.44-.44 3-1.26 4.04-1.86.59.38 1.25.59 1.93.59s1.34-.21 1.93-.59c1.05.6 2.6 1.42 4.05 1.86 1.57.48 2.05 2.34 2.19 3.39-5.41 1.4-10.9 1.4-16.33.01z"/><path d="m54.51 56.94-12.74-11.31c4.49-6.51 3.85-15.51-1.94-21.3-6.52-6.52-17.12-6.52-23.64 0s-6.52 17.12 0 23.64c3.26 3.26 7.54 4.89 11.82 4.89 3.32 0 6.63-.99 9.48-2.95l11.31 12.73c.74.83 1.79 1.32 2.9 1.36h.12c1.07 0 2.1-.43 2.86-1.18.78-.78 1.21-1.87 1.18-2.98s-.53-2.17-1.35-2.9zm-36.95-10.34c-5.76-5.76-5.76-15.14 0-20.9 2.88-2.88 6.66-4.32 10.45-4.32 3.78 0 7.57 1.44 10.45 4.32 5.76 5.76 5.76 15.14 0 20.9s-15.13 5.76-20.9 0zm35.75 14.85c-.41.41-.97.64-1.55.61-.59-.02-1.12-.27-1.51-.71l-11.23-12.64c.27-.24.55-.47.81-.74.26-.26.5-.54.74-.82l12.65 11.23c.44.39.69.92.71 1.51.01.59-.21 1.14-.62 1.56z"/></g></g></svg>